<svg id="Calque_1" data-name="Calque 1" xmlns="http://www.w3.org/2000/svg" viewBox="0 0 1920 619"><defs><style>.cls-1{fill:#fff;}.cls-2{fill:#ff8414;}.cls-3{fill:#f04647;}.cls-4{fill:#ec5721;}.cls-5{fill:#7d7c7c;}</style></defs><title>Plan de travail 1</title><rect class="cls-1" x="-5.43" y="-3.68" width="1930.96" height="619.68"/><path class="cls-2" d="M1046.81-3.68h878.72V616H1209.75Zm-92.69,0H902L1103.06,616h42.47Z"/><polygon class="cls-3" points="258.79 505.47 267.84 505.44 267.86 507.57 258.8 507.6 258.79 505.47"/><rect class="cls-3" x="225.31" y="465.35" width="2.13" height="9.06" transform="translate(-2.11 1.02) rotate(-0.26)"/><polygon class="cls-3" points="225.6 538.94 227.74 538.94 227.77 547.99 225.63 548 225.6 538.94"/><path class="cls-4" d="M222.66,506.69a3.87,3.87,0,1,1,3.89,3.84A3.88,3.88,0,0,1,222.66,506.69Z"/><path class="cls-4" d="M212.26,475.92l14.33,25.49a4.13,4.13,0,0,0-.53-.11,4.27,4.27,0,0,0-3.44,1.84Z"/><polygon class="cls-3" points="185.22 507.92 185.21 505.78 194.28 505.75 194.28 507.88 185.22 507.92"/><path class="cls-3" d="M169.56,506.92a57,57,0,1,0,56.73-57.22A57,57,0,0,0,169.56,506.92Zm12.15-.06a44.83,44.83,0,1,1,45,44.64A44.88,44.88,0,0,1,181.71,506.86Z"/><path class="cls-3" d="M640.22,270.33c.33-4.82.5-9.43.41-13.52a94,94,0,0,0-1.13-12.91c9.39-13.32,20.87-22.23,35.07-18.09,4.23,1.23,4.77,7.26,2.61,16.25C663.92,243.12,652.38,256.25,640.22,270.33Z"/><path class="cls-3" d="M639.41,279.87c18.48-21.13,34-42.46,52.4-26.72,6,5.14-10.15,43-25,58.2-20.37,20.81-39.72,37-56.16,46.37C627.3,338.35,636.3,306.35,639.41,279.87Z"/><path class="cls-3" d="M499.74,442.16H386c-7.82-56.11-4.84-145.61,50.93-155.07,66.24-11.24,106.33-46,100.15-4.07-2.61,17.73-33.91,25.78-69.91,40,51,1.87,81.06,4.45,112.18-11.31,18-9.11,18.89-82.68,48.06-79.09,17.4,2.13,7.09,126.8-45,136.12C551.28,374.36,500.11,393.91,499.74,442.16Z"/><rect class="cls-5" x="364.96" y="448.84" width="162.45" height="22.14"/><path class="cls-5" d="M350,477.81V555.5H542.36V477.81ZM364.94,516c0-9.51,7.15-17.18,15.94-17.18s16,7.67,16,17.18-7.15,17.15-16,17.15S364.94,525.5,364.94,516Z"/><path class="cls-2" d="M526.45,26.74a89.66,89.66,0,1,0,89.66,89.64A89.76,89.76,0,0,0,526.45,26.74Zm0,164.91a75.26,75.26,0,1,1,75.25-75.27A75.25,75.25,0,0,1,526.45,191.65Z"/><path class="cls-4" d="M526.45,49.14a67.25,67.25,0,1,0,67.24,67.24A67.25,67.25,0,0,0,526.45,49.14Zm3.21,101.19v11.49h-7V150.64c-6.41-.1-13-2.11-16.93-4.86l2.66-7.42a29.58,29.58,0,0,0,15.94,4.77c7.86,0,13.17-4.55,13.17-10.85,0-6.09-4.32-9.85-12.52-13.17-11.28-4.44-18.25-9.51-18.25-19.16,0-9.17,6.53-16.16,16.71-17.8V71h6.86V81.7a29.55,29.55,0,0,1,14.39,3.86L542,92.88a26.8,26.8,0,0,0-14-3.77c-8.53,0-11.73,5.09-11.73,9.54,0,5.74,4.09,8.62,13.72,12.59,11.4,4.66,17.15,10.42,17.15,20.26C547.14,140.25,541.06,148.43,529.66,150.33Z"/><path class="cls-4" d="M867.14,221.21c6.53,25,9.72,78.73,21.48,105.72-20.46,8.88-41.86,3-66.87-12.23-15.33-9.33.67-60.66,4.21-77.46,2.74-12.92,4.19-21.25,20.53-22.56Z"/><path class="cls-4" d="M768.2,221.21c-6.53,25-9.7,78.73-21.45,105.72,20.44,8.88,41.83,3,66.84-12.23,15.33-9.33-.66-60.66-4.2-77.46-2.73-12.92-4.19-21.25-20.53-22.56Z"/><path class="cls-5" d="M767.67,330.48l47.86,41.83,47.87-41.83c6.26,1.95,12.05,5,16.31,11.94,12,19.57,15.21,34.78,19.57,63.05-24.6,4-59.32,7.45-83.75,7.45-28.3,0-59.14-3.43-83.74-7.45,4.35-28.27,7.61-43.48,19.57-63.05C755.62,335.45,761.4,332.43,767.67,330.48Z"/><path class="cls-1" d="M767.67,330.48c10.9-3.39,23.25-3.5,31.53-15.24,4.27-6.06,3.63-15.1,2.24-23.85-16.32-9.37-27.78-31.07-27.78-52.78,0-28.84,20.2-46.76,45.11-46.76s45.11,17.92,45.11,46.76c0,24.66-14.82,49.26-34.7,55.83-1,7.76-1.09,15.45,2.68,20.8,8.29,11.74,20.64,11.85,31.54,15.24l-47.87,41.83Z"/><path class="cls-4" d="M792.14,196.2c-5.8,28.64,54,61.29,77.23,67.26,10.29-41.1-6.39-84.28-52.51-80.85-11.15.84-22.1,4.28-28,15.77Z"/><path class="cls-4" d="M807.36,199.46c-1.3,25.42-17.31,39.53-40.23,50-19.57-28.94,15.49-83.17,39.13-50Z"/><path class="cls-4" d="M244.19,270.9v-8.24a3.81,3.81,0,0,0-3.82-3.82H201a3.82,3.82,0,0,0-3.81,3.82v8.24H189.8V257.4a5.12,5.12,0,0,1,5-5.23h51.73a5.12,5.12,0,0,1,5,5.23v13.5Z"/><path class="cls-4" d="M161.67,346.64H201v8.05h41.49v-8.05h40.7A23.11,23.11,0,0,0,302,336.85v35.86a16.76,16.76,0,0,1-16.77,16.76H159.56a16.76,16.76,0,0,1-16.76-16.76V336.85A23.11,23.11,0,0,0,161.67,346.64Z"/><path class="cls-2" d="M302,274.93v49.59a16.77,16.77,0,0,1-16.77,16.77h-42.8V328.61H201v12.68H159.56a16.78,16.78,0,0,1-16.76-16.77V274.93Z"/><rect class="cls-3" x="206.36" y="332.2" width="30.72" height="18.91"/><path class="cls-5" d="M809,535.7l29-13.57-36.19-77.37-29,13.57ZM820.5,523a7.08,7.08,0,1,1,3.42-9.41A7.07,7.07,0,0,1,820.5,523Z"/><path class="cls-5" d="M680.6,455.7l-30.11-10.94L621.31,525,651.43,536Zm-46,59.58a7.08,7.08,0,1,1,4.24,9.08A7.09,7.09,0,0,1,634.64,515.28Z"/><path class="cls-2" d="M688.3,479.57c20.51-2.29,36.24-2.64,47.44-1.39,9.88,1.11,16.19,25.68,23.59,39.48,2.53,4.72-8.74,9.53-17.83,4.14-9.32-5.53-13.71-13.52-13.15-22.35-7.69,23.45-69.3,24.71-57.36-7.39C673.25,486,680.89,480.39,688.3,479.57Z"/><path class="cls-2" d="M774.21,527.24c-2.46-3.93-.57-6.3,2.42-8.16h0c3-1.87,5.93-2.52,8.4,1.42l14.28,22.89c2.46,3.94.57,6.31-2.41,8.17h0c-3,1.87-5.94,2.52-8.4-1.42Zm-9.63,37.63c2.45,3.93,5.4,3.28,8.38,1.42h0c3-1.87,4.88-4.24,2.42-8.17l-14.29-22.89c-2.45-3.94-5.48-3.4-8.56-1.69-3.36,1.88-4.71,4.49-2.25,8.44Zm-12,6.3c2.29,3.66,5.21,3.3,8,1.56h0c2.79-1.73,4.39-4.19,2.1-7.86l-13.33-21.34c-2.28-3.67-5.2-3.31-8-1.57h0c-2.79,1.73-4.39,4.19-2.1,7.86ZM778,560c3,4.77,6.19,4.52,9.17,2.67h0c3-1.87,4.61-4.66,1.65-9.42l-17.28-27.68c-3-4.75-6-4.23-8.87-2.25-3.92,2.64-4.92,4.24-2,9Z"/><path class="cls-3" d="M688,560.79l29.68-11.69c5.1-2,7.46.69,9,4.56s1.66,7.44-3.45,9.46l-29.69,11.69c-5.1,2-7.46-.68-9-4.56S682.93,562.8,688,560.79Z"/><path class="cls-3" d="M663.4,536.07l30-11.82c5.15-2,7.87.56,9.42,4.47s1.32,7.67-3.85,9.7l-30,11.83c-5.17,2-7.55-.7-9.09-4.62S658.25,538.11,663.4,536.07Z"/><path class="cls-3" d="M674.67,549.13l34.54-13.63c5.94-2.34,8.71.06,10.18,3.79s1.08,7.36-4.86,9.71L680,562.61c-5.94,2.34-8.71-.06-10.19-3.78S668.73,551.45,674.67,549.13Z"/><path class="cls-5" d="M799,523.45c0-.06-.1-.23-.18-.44a1.08,1.08,0,0,1,.18-.11Z"/><path class="cls-3" d="M665.79,519l9.53-4.2c4.48,4.57,14.76,4.93,16.47,4.93h0c11.34,0,24.43-3.43,32.68-10.75,2.51,6.15,7.33,11.46,14.22,15.51a22.78,22.78,0,0,0,11.53,3.13c2.57,0,5.76-.53,8-2.2-.2.77-1.13,2.51-1.12,3.32a12.49,12.49,0,0,0-4.55,1.81c-2.39,1.49-5,4.25-5.75,6.32a7.69,7.69,0,0,0-.91-.06c-2,0-3-.23-5.08,1.06a11,11,0,0,0-4.81,5.52c-.68,1.9-1,4.94,1.27,8.6l2.44,3.91c-15,6.44-36.82,17.63-49.28,4-5.55-6.1-14.38-18-18.29-28.52l-1.28.51c-4.67,1.84-7.13-.51-8.52-4.06S661.11,520.82,665.79,519Z"/><path class="cls-3" d="M738.24,475.54c13-5.17,36.72-5.37,40.64,2.95,6.43,13.67,10.34,22.06,19.94,44.41-2.2,1.3-4.38,2.61-6.56,3.94l-4.14-6.61c-2.48-4-5.62-4.81-7.82-4.81a11.68,11.68,0,0,0-6.19,2,13.32,13.32,0,0,0-3.55,3.14,9,9,0,0,0-4.25-1.08,9.28,9.28,0,0,0-4.6,1.7c1.25-2.38,1.36-4.48.51-6.1C757.52,506.28,748.85,476.94,738.24,475.54Z"/><path class="cls-3" d="M370.54,122.05c5.43-8.57,14-23.15,14-30.08a18.37,18.37,0,0,0-36.73,0c0,2.51,1.13,6,2.81,9.88a68.62,68.62,0,0,1,15,13.39A71.92,71.92,0,0,1,370.54,122.05ZM376.82,92a10.65,10.65,0,1,1-10.65-10.64A10.65,10.65,0,0,1,376.82,92Z"/><path class="cls-5" d="M250.27,152.58a61.31,61.31,0,0,0,.69,17.64,62.26,62.26,0,0,0,1.86,7.59,63.37,63.37,0,0,0,56.41,44.1h.46a2,2,0,0,0,.42,0c1,0,2,.07,2.92.07,1.18,0,2.43,0,3.61-.1h.19a.57.57,0,0,0,.26,0,63,63,0,0,0,41.36-19.21,60.11,60.11,0,0,0,6.22-7.58,63.26,63.26,0,0,0,8.54-17.27,62.26,62.26,0,0,0,1.86-7.59,61.69,61.69,0,0,0,.68-17.64A50.28,50.28,0,0,0,374.5,145a61.72,61.72,0,0,0-7.59-18.78,67,67,0,0,0-5.42-7.59A62.8,62.8,0,0,0,317.66,96a2.24,2.24,0,0,0-.31-.3,1.21,1.21,0,0,0,.09.27c-.19,0-.42,0-.61,0-1.26-.08-2.51-.11-3.8-.11s-2.46,0-3.68.11a.51.51,0,0,1,.08-.31c-.11.12-.23.2-.31.31a62.41,62.41,0,0,0-15,2.79c-1.22,3.08-2.84,6.47-4.66,10a53.2,53.2,0,0,1,11.81-4,99.77,99.77,0,0,0-9.37,13.88H284c-1.54,2.62-3.1,5.18-4.6,7.59h8.76A81.45,81.45,0,0,0,282.42,145H259.3a54.48,54.48,0,0,1,4.19-10.94c-1.4-2.16-3-4.65-4.66-7.34A62.79,62.79,0,0,0,251.49,145,55.85,55.85,0,0,0,250.27,152.58Zm100.79-34H334.81a101,101,0,0,0-9.22-13.69A54.58,54.58,0,0,1,351.06,118.62ZM366.73,145H344.3a81.92,81.92,0,0,0-5.72-18.78h19.19A55.15,55.15,0,0,1,366.73,145Zm.6,25.23H344.57a79.56,79.56,0,0,0,.9-11.76c0-2-.09-3.92-.24-5.88h22.89a49.8,49.8,0,0,1,.39,6.38A52.92,52.92,0,0,1,367.33,170.22Zm-12.26,24.86H336.52a84.37,84.37,0,0,0,6.5-17.27H365.2A55.19,55.19,0,0,1,355.07,195.08Zm-30.5,18.13a101.25,101.25,0,0,0,7.64-10.55h14.9A54,54,0,0,1,324.57,213.21Zm-7.74-10.55h6.25q-2.86,4.07-6.25,8Zm0-24.85h18.34a78.51,78.51,0,0,1-7.26,17.27H316.83Zm0-25.23h20.79c.16,2,.27,3.91.27,5.88a70.11,70.11,0,0,1-1,11.76H316.83Zm0-26.37H330.2A75,75,0,0,1,336.56,145H316.83Zm0-19.87A96.58,96.58,0,0,1,326,118.62h-9.13Zm-7.6,12.28h-8.5a96.24,96.24,0,0,1,8.5-11.57Zm0,26.37H290.15a75,75,0,0,1,6.35-18.78h12.73Zm0,25.23h-19.4a70.11,70.11,0,0,1-1-11.76c0-2,.11-3.92.27-5.88h20.14Zm0,24.86H298.8a78.47,78.47,0,0,1-7.25-17.27h17.68Zm-5.6,7.58h5.6v7.21Q306.22,206.33,303.63,202.66Zm-24.71,0h15.59a102.61,102.61,0,0,0,7.78,10.7A55.09,55.09,0,0,1,278.92,202.66Zm-18.1-24.85h22.86a83.87,83.87,0,0,0,6.52,17.27H271A55.39,55.39,0,0,1,260.82,177.81ZM257.52,159a51.68,51.68,0,0,1,.38-6.38h23.57c-.15,2-.24,3.91-.24,5.88a78.23,78.23,0,0,0,.91,11.76H258.69A52.92,52.92,0,0,1,257.52,159Z"/><path class="cls-4" d="M246.72,89.39c0,12.33,22.32,44.66,22.32,44.66s22.33-32.33,22.33-44.66a22.33,22.33,0,1,0-44.65,0Zm9.38,0a12.95,12.95,0,1,1,12.94,13A13,13,0,0,1,256.1,89.39Z"/><path class="cls-3" d="M805.26,103.77c0-26.44-30.39-47.88-67.88-47.88s-67.89,21.44-67.89,47.88,30.39,47.87,67.89,47.87a91.21,91.21,0,0,0,31.27-5.38l22.41,14.53,2-29.67C800.74,123.37,805.26,114,805.26,103.77Zm-101-25.07H770v6.08H704.27ZM770,125.62H704.27v-6.09H770Zm14.16-20.42h-94V99.12h94Z"/><path class="cls-1" d="M1543.11,215.63v16.89H1489.9V161.8h53.21v16.32H1511.2v10.26H1537v15.7h-25.8v11.55Z"/><path class="cls-1" d="M1580.78,178.74v53.78h-20.57V178.74h-14.66V161.8h49.89v16.94Z"/><path class="cls-1" d="M1217.67,368.51v25.7h-22V323.49h30.2q11.3,0,17.18,2.59a20.83,20.83,0,0,1,9.32,7.93,21.53,21.53,0,0,1,3.45,12q0,10.11-7,16.32t-18.8,6.22Zm-.31-15.18h7.25q9.59,0,9.59-7.05,0-6.63-8.86-6.63h-8Z"/><path class="cls-1" d="M1283,394.21h-19.79V341.52h17.2V352.4q3-11.86,13.73-11.87a29.4,29.4,0,0,1,3,.21v18.39a17.25,17.25,0,0,0-3.88-.52q-10.26,0-10.26,11.45Z"/><path class="cls-1" d="M1329.37,395.3q-13.11,0-20.83-8.16a27,27,0,0,1-7.72-19.15,26.44,26.44,0,0,1,8.06-19.69q8.05-7.86,21-7.87t20.9,7.77a26.19,26.19,0,0,1,7.9,19.48,26.6,26.6,0,0,1-8,19.72Q1342.63,395.29,1329.37,395.3Zm.31-12.54q4.82,0,5.88-5a50,50,0,0,0,1.06-10.44q0-7.41-1.5-10.67a5.43,5.43,0,0,0-5.39-3.27,5.48,5.48,0,0,0-5.23,3.37q-1.66,3.38-1.66,11.09,0,9.06,1.71,12A5.57,5.57,0,0,0,1329.68,382.76Z"/><path class="cls-1" d="M1389,354.94v39.27h-19.48V354.94h-7.87V341.52h7.87a59.41,59.41,0,0,1,.57-9.67,13.53,13.53,0,0,1,2.85-6,14.44,14.44,0,0,1,6.11-4.41,28.48,28.48,0,0,1,10.31-1.53,79.65,79.65,0,0,1,13.32,1.09v13.52a59.26,59.26,0,0,0-7.36-.67,10.08,10.08,0,0,0-4.45,1q-2,1-2,4.82v1.87h13.47v13.42Z"/><path class="cls-1" d="M1442.58,375.3l19.27,1.29a22.74,22.74,0,0,1-8.73,13.24q-7,5.48-19,5.47-13.32,0-21.24-7.7a25.51,25.51,0,0,1-7.93-19.09,27.7,27.7,0,0,1,7.83-19.95q7.82-8.13,20.87-8.13,12.64,0,20.44,7.67t7.8,20.88c0,.72,0,1.72-.05,3h-35.28c.07,3.32.65,5.78,1.76,7.38s3.21,2.41,6.32,2.41Q1441.39,381.77,1442.58,375.3Zm-1.4-13.68c0-3.56-.75-5.95-2.15-7.18a7.58,7.58,0,0,0-5.18-1.84q-7.33,0-7.34,9Z"/><path class="cls-1" d="M1465.32,379.29l16.32-2.23q1.39,5.7,11.09,5.7,8,0,8-3.11a2.31,2.31,0,0,0-1.56-2.1c-1-.5-3.49-1-7.35-1.53q-16.06-2.22-20-7a16,16,0,0,1-4-10.54,15.54,15.54,0,0,1,6.73-13.08q6.74-5,17.67-5,19.17,0,24.45,13.83l-15.64,3q-2.18-4.67-9.17-4.67a10.57,10.57,0,0,0-4.95.91c-1.09.6-1.63,1.2-1.63,1.79,0,1.73,1.65,2.78,5,3.15q13,1.44,17.57,2.94a16.75,16.75,0,0,1,7.87,5.49,14.75,14.75,0,0,1,3.26,9.65,16,16,0,0,1-7.22,13.74q-7.23,5.07-19.93,5.08Q1470.4,395.3,1465.32,379.29Z"/><path class="cls-1" d="M1521.53,379.29l16.32-2.23q1.41,5.7,11.09,5.7,8,0,8-3.11a2.32,2.32,0,0,0-1.55-2.1q-1.56-.75-7.36-1.53-16.07-2.22-20-7a16,16,0,0,1-4-10.54,15.55,15.55,0,0,1,6.74-13.08q6.73-5,17.66-5,19.17,0,24.46,13.83l-15.65,3q-2.18-4.67-9.17-4.67a10.57,10.57,0,0,0-5,.91c-1.09.6-1.63,1.2-1.63,1.79q0,2.6,5,3.15,12.94,1.44,17.56,2.94a16.7,16.7,0,0,1,7.87,5.49,14.76,14.76,0,0,1,3.27,9.65,16,16,0,0,1-7.23,13.74q-7.23,5.07-19.92,5.08Q1526.61,395.3,1521.53,379.29Z"/><path class="cls-1" d="M1603.08,321.26v16.37h-20.67V321.26Zm0,20.26v52.69h-20.67V341.52Z"/><path class="cls-1" d="M1639.71,395.3q-13.11,0-20.82-8.16a26.94,26.94,0,0,1-7.72-19.15,26.43,26.43,0,0,1,8-19.69q8.05-7.86,21-7.87t20.9,7.77a26.2,26.2,0,0,1,7.91,19.48,26.57,26.57,0,0,1-8,19.72Q1653,395.29,1639.71,395.3Zm.31-12.54q4.83,0,5.88-5a50,50,0,0,0,1.07-10.44q0-7.41-1.51-10.67a5.42,5.42,0,0,0-5.38-3.27,5.49,5.49,0,0,0-5.24,3.37q-1.65,3.38-1.66,11.09,0,9.06,1.71,12A5.57,5.57,0,0,0,1640,382.76Z"/><path class="cls-1" d="M1728.46,394.21h-20.67V361.05q0-4.1-1.27-5.23a4.58,4.58,0,0,0-3.18-1.14q-5.65,0-5.65,7.87v31.66H1677V341.52h19.17V349q4.24-8.55,15.18-8.55a19.72,19.72,0,0,1,9.71,2.2,13.19,13.19,0,0,1,5.67,5.7q1.71,3.5,1.71,12.15Z"/><path class="cls-1" d="M1790.79,394.21h-20.67V361.05q0-4.1-1.27-5.23a4.6,4.6,0,0,0-3.19-1.14q-5.64,0-5.64,7.87v31.66h-20.68V341.52h19.17V349q4.24-8.55,15.18-8.55a19.73,19.73,0,0,1,9.72,2.2,13.19,13.19,0,0,1,5.67,5.7q1.71,3.5,1.71,12.15Z"/><path class="cls-1" d="M1836.49,375.3l19.27,1.29a22.74,22.74,0,0,1-8.73,13.24q-7,5.48-19,5.47-13.3,0-21.24-7.7a25.55,25.55,0,0,1-7.93-19.09,27.7,27.7,0,0,1,7.83-19.95q7.82-8.13,20.88-8.13,12.63,0,20.44,7.67t7.79,20.88c0,.72,0,1.72,0,3h-35.28c.07,3.32.65,5.78,1.76,7.38s3.21,2.41,6.32,2.41Q1835.3,381.77,1836.49,375.3Zm-1.4-13.68q-.06-5.34-2.14-7.18a7.63,7.63,0,0,0-5.19-1.84q-7.34,0-7.33,9Z"/><path class="cls-1" d="M1884.26,323.49v70.72H1863.9V323.49Z"/></svg>