<svg id="Calque_1" data-name="Calque 1" xmlns="http://www.w3.org/2000/svg" viewBox="0 0 1920 619"><defs><style>.cls-1,.cls-7{fill:#fff;}.cls-2{fill:#f04647;}.cls-3{fill:#7d7c7c;}.cls-4{fill:#ec5721;}.cls-5{fill:#ff8414;}.cls-6{fill:#ff9a2a;}.cls-7{font-size:127.72px;font-family:FranklinGothic-Heavy, Franklin Gothic Heavy;font-weight:800;}</style></defs><title>Plan de travail 1</title><rect class="cls-1" x="-11.43" y="-1.97" width="1943.43" height="623.69"/><path class="cls-2" d="M1047.61-2H1932V621.72H1211.6ZM954.32-2H901.85l202.37,623.69H1147Z"/><path class="cls-3" d="M732.44,360.81c.18-14.12,10.2-22.78,22.41-22.61s22,9.07,21.8,23.19c-.16,12.1-3.31,31.33-23.83,31.33C733.69,392.72,732.29,371.45,732.44,360.81Z"/><polygon class="cls-4" points="761.45 396.38 745.75 396.38 752.04 403.73 745.75 427.97 753.49 437.1 761.45 427.97 755.34 403.73 761.45 396.38"/><path class="cls-3" d="M780.19,405.94c-.24,18.12,3.46,31.22,11,39-9.67.78-23.92,1.7-37.79,1.7-33.65,0-50.66-2.8-50.66-2.8,1-8.37,2.19-17,4.62-25.2,3.7-12.44,13.73-14.82,27.69-17,3.3,13.22,10.64,25.7,18.63,25.7,6.33,0,15.14-9.91,17.34-26.07a51.12,51.12,0,0,1,9.37,1.31C780.28,403.65,780.2,404.78,780.19,405.94Z"/><path class="cls-3" d="M873.11,483.81c-4.7-15.83-18.18-22.43-37-23.41-3,21.75-14.82,35.1-23.36,35.1-10.75,0-20.64-16.81-25.08-34.61-18.79,3-32.31,6.17-37.28,22.92-3.27,11-4.81,22.66-6.23,33.93,0,0,22.91,3.76,68.23,3.76,32.63,0,66.92-3.76,66.92-3.76C877.92,506.47,876.39,494.83,873.11,483.81Z"/><path class="cls-3" d="M784.2,406c.25-19,13.73-30.67,30.17-30.45s29.61,12.22,29.36,31.23c-.21,16.28-4.45,42.18-32.08,42.18C785.88,449,784,420.33,784.2,406Z"/><polygon class="cls-4" points="823.26 453.89 802.12 453.89 810.58 463.78 802.12 496.43 812.54 508.72 823.26 496.43 815.04 463.78 823.26 453.89"/><path class="cls-2" d="M712.83,146.26c0,12.2,8.42,25.63,18.81,25.63s18.81-13.43,18.81-25.63-8.42-18.53-18.81-18.53S712.83,134.06,712.83,146.26Zm-17.72,51.19c2.82-9.64,6.92-15.88,14.17-16.71,9.89,0,12.82,2.57,12.75-9.34,0,0,3.06,2.95,9.19,2.95,7,0,9.79-3.27,9.79-3.27-1,11.26,3.52,9.82,12,9.82,8,1,12.49,6.35,15.46,16.55,2,6.71,2.88,13.8,3.73,20.67,0,0-6.76,5.77-39.73,5.77-27.9,0-41.09-5.77-41.09-5.77C692.24,211.25,693.16,204.16,695.11,197.45Z"/><path class="cls-4" d="M605.32,233.71c0,12.2,8.42,25.64,18.81,25.64s18.81-13.44,18.81-25.64-8.42-18.53-18.81-18.53S605.32,221.51,605.32,233.71ZM587.61,284.9c2.81-9.64,6.91-15.88,14.16-16.71,9.89,0,12.82,2.56,12.75-9.34,0,0,3.06,2.95,9.19,2.95,7,0,9.79-3.27,9.79-3.27-1,11.26,3.52,9.82,12,9.82,8,1,12.49,6.35,15.47,16.55,2,6.72,2.87,13.81,3.72,20.67,0,0-6.76,5.76-39.74,5.76-27.89,0-41.09-5.76-41.09-5.76C584.73,298.71,585.65,291.62,587.61,284.9Z"/><path class="cls-3" d="M611.41,201.73a1.19,1.19,0,0,0,1.18-1c.2-1.17.42-2.34.67-3.48a1.2,1.2,0,1,0-2.35-.52c-.26,1.19-.49,2.39-.69,3.61a1.2,1.2,0,0,0,1,1.38Z"/><path class="cls-3" d="M612.88,193.67a1.21,1.21,0,0,1-.83-1.49c.64-2.24,1.39-4.48,2.24-6.65a1.2,1.2,0,0,1,2.24.88c-.82,2.09-1.55,4.26-2.17,6.43a1.19,1.19,0,0,1-1.15.87A1.24,1.24,0,0,1,612.88,193.67Zm3.83-10.84a1.21,1.21,0,0,1-.58-1.6c1-2.11,2.09-4.2,3.27-6.21a1.2,1.2,0,1,1,2.07,1.23c-1.14,1.93-2.21,4-3.16,6a1.21,1.21,0,0,1-1.09.7A1.19,1.19,0,0,1,616.71,182.83Zm5.51-10.09a1.21,1.21,0,0,1-.32-1.67c1.32-1.94,2.74-3.83,4.22-5.62A1.2,1.2,0,1,1,628,167c-1.43,1.73-2.81,3.56-4.07,5.43a1.21,1.21,0,0,1-1.68.32Zm7-9.1a1.19,1.19,0,0,1-.06-1.69c1.59-1.69,3.28-3.33,5-4.88a1.2,1.2,0,0,1,1.6,1.8c-1.71,1.51-3.35,3.1-4.88,4.72a1.22,1.22,0,0,1-.88.38A1.19,1.19,0,0,1,629.27,163.64Zm8.37-7.87a1.22,1.22,0,0,1,.22-1.69c1.84-1.42,3.77-2.78,5.74-4a1.2,1.2,0,1,1,1.29,2c-1.9,1.21-3.77,2.52-5.55,3.91a1.2,1.2,0,0,1-.74.25A1.23,1.23,0,0,1,637.64,155.77Zm9.51-6.47a1.19,1.19,0,0,1,.47-1.63c2-1.13,4.15-2.17,6.29-3.1a1.22,1.22,0,0,1,1.59.62,1.2,1.2,0,0,1-.63,1.58c-2.07.9-4.12,1.92-6.09,3a1.09,1.09,0,0,1-.58.15A1.19,1.19,0,0,1,647.15,149.3Zm10.38-4.93a1.21,1.21,0,0,1,.72-1.54c2.2-.8,4.45-1.5,6.7-2.08a1.2,1.2,0,1,1,.6,2.32c-2.16.57-4.35,1.25-6.48,2a1.14,1.14,0,0,1-.41.07A1.2,1.2,0,0,1,657.53,144.37Zm11-3.25a1.22,1.22,0,0,1,1-1.42c2.31-.44,4.64-.79,6.94-1a1.23,1.23,0,0,1,1.32,1.08,1.21,1.21,0,0,1-1.08,1.32c-2.22.22-4.49.55-6.72,1l-.23,0A1.21,1.21,0,0,1,668.55,141.12Zm19.44-.29c-2.29-.13-4.56-.15-6.79-.06a1.22,1.22,0,0,1-1.25-1.16,1.21,1.21,0,0,1,1.16-1.25q3.46-.13,7,.07a1.2,1.2,0,0,1,1.14,1.26,1.21,1.21,0,0,1-1.21,1.14Z"/><path class="cls-3" d="M696.28,141.74a1.19,1.19,0,0,0,1.18-1,1.21,1.21,0,0,0-1-1.39c-1.22-.2-2.42-.36-3.63-.51a1.19,1.19,0,0,0-1.35,1,1.21,1.21,0,0,0,1.06,1.34c1.17.14,2.34.3,3.51.5Z"/><path class="cls-3" d="M679.39,307a1.2,1.2,0,0,0,0-2.4c-1.18,0-2.36-.05-3.55-.11a1.18,1.18,0,0,0-1.27,1.14,1.2,1.2,0,0,0,1.14,1.26c1.23.07,2.45.11,3.67.11Z"/><path class="cls-3" d="M682.8,305.78a1.2,1.2,0,0,1,1.13-1.27c2.27-.12,4.53-.36,6.76-.69a1.2,1.2,0,0,1,.35,2.38c-2.29.35-4.64.58-7,.71H684A1.19,1.19,0,0,1,682.8,305.78Zm11.41-1.34a1.2,1.2,0,0,1,.93-1.43c2.2-.48,4.41-1.05,6.56-1.73a1.2,1.2,0,0,1,.73,2.29c-2.23.7-4.51,1.3-6.79,1.79l-.25,0A1.22,1.22,0,0,1,694.21,304.44Zm11.08-3.1a1.21,1.21,0,0,1,.7-1.55c2.1-.81,4.2-1.73,6.21-2.73a1.19,1.19,0,0,1,1.61.54,1.2,1.2,0,0,1-.54,1.62c-2.08,1-4.24,2-6.43,2.82a1.25,1.25,0,0,1-.42.08A1.23,1.23,0,0,1,705.29,301.34Zm10.46-4.77a1.22,1.22,0,0,1,.45-1.65c2-1.13,3.88-2.36,5.72-3.66a1.21,1.21,0,0,1,1.39,2c-1.89,1.34-3.89,2.61-5.91,3.77a1.21,1.21,0,0,1-.6.17A1.23,1.23,0,0,1,715.75,296.57Zm9.6-6.34a1.2,1.2,0,0,1,.18-1.69c1.77-1.42,3.48-2.93,5.09-4.5a1.2,1.2,0,1,1,1.68,1.72c-1.66,1.62-3.44,3.19-5.26,4.65a1.17,1.17,0,0,1-.75.27A1.23,1.23,0,0,1,725.35,290.23Zm8.5-7.75a1.19,1.19,0,0,1-.08-1.7c1.51-1.68,3-3.44,4.32-5.23A1.2,1.2,0,1,1,740,277c-1.39,1.86-2.89,3.68-4.46,5.41a1.24,1.24,0,0,1-.89.4A1.19,1.19,0,0,1,733.85,282.48Zm7.18-9a1.21,1.21,0,0,1-.35-1.67c1.24-1.88,2.4-3.85,3.45-5.84a1.2,1.2,0,1,1,2.13,1.12c-1.09,2.05-2.28,4.09-3.56,6a1.19,1.19,0,0,1-1,.55A1.22,1.22,0,0,1,741,273.51Zm5.68-10a1.2,1.2,0,0,1-.6-1.59c.92-2.06,1.75-4.19,2.48-6.33a1.21,1.21,0,0,1,1.53-.75,1.19,1.19,0,0,1,.74,1.52c-.74,2.21-1.6,4.41-2.55,6.54a1.21,1.21,0,0,1-1.1.71A1.24,1.24,0,0,1,746.71,263.53Zm4-10.78a1.19,1.19,0,0,1-.85-1.47c.58-2.18,1.07-4.41,1.44-6.63a1.2,1.2,0,1,1,2.37.39,69.21,69.21,0,0,1-1.49,6.86,1.21,1.21,0,0,1-1.16.9A1.06,1.06,0,0,1,750.75,252.75Z"/><path class="cls-3" d="M753.15,241.44a1.2,1.2,0,0,0,1.19-1.08c.12-1.21.22-2.44.29-3.66a1.21,1.21,0,0,0-1.14-1.27,1.17,1.17,0,0,0-1.27,1.14q-.09,1.78-.27,3.54a1.21,1.21,0,0,0,1.08,1.32Z"/><path class="cls-3" d="M610.67,204.88a1.16,1.16,0,0,0,.79-.3l12.47-10.76a1.2,1.2,0,0,0,.12-1.69,1.21,1.21,0,0,0-1.7-.13l-11.2,9.67L605.55,188a1.22,1.22,0,0,0-1.58-.65,1.2,1.2,0,0,0-.65,1.57l6.24,15.18a1.17,1.17,0,0,0,.83.71A.9.9,0,0,0,610.67,204.88Z"/><path class="cls-3" d="M762.06,248.6a1.27,1.27,0,0,0,.64-.18,1.2,1.2,0,0,0,.39-1.65l-8.5-14a1.21,1.21,0,0,0-2-.16L742,245.14a1.21,1.21,0,0,0,1.84,1.56l9.56-11.29L761.05,248A1.18,1.18,0,0,0,762.06,248.6Z"/><path class="cls-2" d="M170.42,111.81A17.6,17.6,0,1,0,188,94.2,17.6,17.6,0,0,0,170.42,111.81Z"/><path class="cls-2" d="M171.7,201.48c2.19-1.5,25.06-11.62,25.06-11.62s4.06,10.64,11.2,12.32l-22.82,8.26,8.45,28.23c.09.27-4.39,1.12-4.39,1.12a15.69,15.69,0,0,0,.7,2.66,5.1,5.1,0,0,1,4.43,2.29c2,3.88-.57,8.78-5.05,11.1s-15.83,8.74-18.23,5.09c-2.85-4.34,4.8-13.48,11.15-17.21l-.38-1.87-3.55.74s-6.16-23.42-8.3-30.7C168.69,207.52,168.15,203.91,171.7,201.48Z"/><path class="cls-2" d="M210.84,187.89c3.14-2.75,7.38-3.78,9.24-1.66l20.43,25.44,13.81-14.75,2.52,2.72L258,198c.1-.11-.24-1-.15-1a7.63,7.63,0,0,1,2.77-6.81c3.45-2.69,8.78-1.61,11.86,2.38s11.72,14.38,8.24,17.05c-2.59,2-11.23-.87-16.7-4.12l-1.31.78,2.54,2.34s-14.54,14.7-19.62,19.36a7.12,7.12,0,0,1-9.21.32c-3.18-2.74-27.88-31.59-27.88-31.59C206.67,194.57,207.69,190.63,210.84,187.89Z"/><path class="cls-2" d="M194.31,134.66a13.92,13.92,0,0,1,17.14,9.68L223,185.86a19,19,0,0,1,.68,5.4c-.58,6.56-7.7,10.81-14.84,11.06-8,.28-11-2.84-12.67-9l-6.66-24-4.86-17.51A13.92,13.92,0,0,1,194.31,134.66Z"/><path class="cls-4" d="M119.28,174.35l9.8,6.25-1.28,2,10.34,6.61,1.28-2,10.14,6.47a6.82,6.82,0,0,0,6.26.57l-5.71,8.93a4.94,4.94,0,0,1-6.84,1.51l-31.33-20a5,5,0,0,1-1.51-6.84l5.71-8.94A6.83,6.83,0,0,0,119.28,174.35Z"/><path class="cls-4" d="M165.68,178.82l-7.9,12.36a5,5,0,0,1-6.84,1.51l-10.67-6.82,2-3.16L132,176.11l-2,3.16-10.32-6.6a5,5,0,0,1-1.51-6.84L126,153.47Z"/><rect class="cls-4" x="132.25" y="178.12" width="5.59" height="9.08" transform="translate(-91.59 198.19) rotate(-57.44)"/><path class="cls-2" d="M144.77,150.7c2.33-2.8,4.2-2.61,9.24,2.15-.46-3.08.9-3.08,1.78-2.71s2.08,3.07,2.74,5.67l1.64-2.4,11,7.84,16.61-22.4c1.58-2,6.06,1.13,8,2.71s2.52,6.16.94,8.12c0,0-14.69,17.56-19.32,22.4-3.08,3.22-5.46,5.28-9.52,2.66a167.07,167.07,0,0,1-15.21-10.69l1-1.81C149.12,159.52,142.23,153.76,144.77,150.7Z"/><path class="cls-2" d="M231.85,151.54l-17.17-2.42c-.35-3.8-2.38-10.36-5.5-13.2,7.12,1.07,21.35,3.34,26.1,4.5,4.33,1.07,7.94,3.16,7.71,8-.24,4.66-.62,9.89-1.91,18.86l-2.16-.37s.41,7.53-4.16,7.08c-4.8-.48-2.91-7.86-2.91-7.86l-1.84-.39Z"/><path class="cls-2" d="M233.29,164.21c-2.5,1.93-5.75,5.46-5.57,7,.11.95.79,2.13,3.23.19-1.61,6.74-.85,8.45,2.74,9.08,4.55.79,5.91-11.25,5.48-15.75-.36-3.81-2.73-2.44-5.88-.49Z"/><path class="cls-3" d="M536.64,374.83l23.78,21.51L540.57,419l-24.15-21.88a138,138,0,0,0,20.22-22.33Z"/><path class="cls-3" d="M326.3,396.56c54.33,49.19,136.63,48.43,190.12.6a138,138,0,0,0,20.22-22.33c42.3-58,34.93-139.93-19.4-189.13-58.1-52.61-148.2-48.11-200.83,10S268.2,343.93,326.3,396.56Zm-3.18-194.78c49.28-54.43,133.63-58.62,188-9.36S569.72,326,520.44,380.47s-133.67,58.63-188.06,9.36S273.83,256.21,323.12,201.78Z"/><path class="cls-5" d="M708.72,493.13s.82,11.84-22.14,37.19c-21.68,23.94-35.42,26.39-35.42,26.39l-13-13.83,55.41-61.35Z"/><polygon class="cls-4" points="683.25 473.59 629.26 533.38 538.06 435.51 576.96 392.56 683.25 473.59"/><path class="cls-2" d="M336.45,385.34c51.91,47,132.46,43,179.49-8.93S559,243.94,507.1,196.91s-132.45-43-179.5,8.94S284.53,338.32,336.45,385.34Zm5.46-28.66c-.77-.92-1.45-1.9-2.19-2.84-1-1.37-2.12-2.71-3.08-4.1a102.37,102.37,0,0,1-18.76-59.1c0-57.09,46.61-103.38,104.1-103.38s104.09,46.29,104.09,103.38a102.52,102.52,0,0,1-27.18,69.5c-.14.15-.25.32-.39.47a1.58,1.58,0,0,0,.12-.15v0a104.29,104.29,0,0,1-155.86-2.82c0,.05,0,.08,0,.12C342.44,357.39,342.19,357,341.91,356.68Z"/><path class="cls-2" d="M419.88,212.42c22.43,0,40.62,13.69,40.62,40s-18.19,55.37-40.62,55.37-40.62-29-40.62-55.37S397.45,212.42,419.88,212.42Z"/><path class="cls-6" d="M341.91,356.68c-.77-.92-1.45-1.9-2.19-2.84C340.45,354.79,341.14,355.75,341.91,356.68Z"/><path class="cls-2" d="M371.59,326.91c21.36,0,27.68,5.55,27.53-20.16,0,0,6.61,6.37,19.85,6.37,15.06,0,21.15-7.06,21.15-7.06-2.09,24.32,7.6,21.19,25.95,21.19,16.63,2.09,26.13,12.9,32.55,33.18a104.29,104.29,0,0,1-155.86-2.82C348.78,339.92,357.36,328.55,371.59,326.91Z"/><polygon class="cls-1" points="405.53 386.06 419.01 398.74 433.8 386.06 422.48 342.43 433.8 329.2 405.53 329.2 416.52 342.43 405.53 386.06"/><path class="cls-3" d="M364.63,559.46c0,5.65,5,10.22,11.15,10.22h38.49c6.16,0,11.15-4.57,11.15-10.22V500.71c0-5.64-5-10.22-11.15-10.22H375.78c-6.16,0-11.15,4.58-11.15,10.22Z"/><path class="cls-1" d="M395.13,498.06c-6.72,0-12.16,4.09-12.16,12s5.44,16.58,12.16,16.58,12.16-8.69,12.16-16.58S401.85,498.06,395.13,498.06Zm26,58.45s-8.53,3.73-26.57,3.73c-21.33,0-25.7-3.73-25.7-3.73a84.92,84.92,0,0,1,2.41-13.36c1.92-6.6,4.8-10.06,10-10.71,5.49,0,8.4.94,7.77-6.34,0,0,1.82,2.1,6.33,2.1a8.87,8.87,0,0,0,5.94-1.9c0,7.7,1.85,6,8.25,6,4.69.54,7.34,4.57,9.16,10.81A84.92,84.92,0,0,1,421.16,556.51Z"/><path class="cls-3" d="M433.07,502.67H493a2,2,0,0,1,2,2v.68a2,2,0,0,1-2,2H433.08a2,2,0,0,1-2-2v-.69A2,2,0,0,1,433.07,502.67Z"/><path class="cls-3" d="M433.08,519.36H493a2,2,0,0,1,2,2v.68a2,2,0,0,1-2,2H433.08a2,2,0,0,1-2-2v-.68a2,2,0,0,1,2-2Z"/><path class="cls-3" d="M433.08,536H493a2,2,0,0,1,2,2v.68a2,2,0,0,1-2,2H433.08a2,2,0,0,1-2-2v-.68A2,2,0,0,1,433.08,536Z"/><path class="cls-3" d="M433.08,552.73H493a2,2,0,0,1,2,2v.68a2,2,0,0,1-2,2H433.08a2,2,0,0,1-2-2v-.68A2,2,0,0,1,433.08,552.73Z"/><path class="cls-2" d="M501,589.35H358.66a12.27,12.27,0,0,1-12.26-12.26v-94a12.27,12.27,0,0,1,12.26-12.26H501a12.27,12.27,0,0,1,12.26,12.26v94A12.27,12.27,0,0,1,501,589.35ZM358.66,474.91a8.18,8.18,0,0,0-8.17,8.17v94a8.18,8.18,0,0,0,8.17,8.17H501a8.19,8.19,0,0,0,8.17-8.17v-94a8.19,8.19,0,0,0-8.17-8.17Z"/><polygon class="cls-4" points="399.62 530.49 391.02 530.49 394.46 534.51 391.02 547.78 395.26 552.78 399.62 547.78 396.27 534.51 399.62 530.49"/><path class="cls-3" d="M174.61,449.54v25.18S142.52,445,142.52,444.91H170A4.62,4.62,0,0,1,174.61,449.54Z"/><path class="cls-2" d="M142.52,333.74V440.28H169a10.31,10.31,0,0,1,10.29,10.3v24.33h73.2V462.85l-25.66-29.61H161.22v-5.4h63.4c-.85-3.46-2.05-8.5-2.94-12.72H161.22v-5.41h59.46c-.19-1.29-.24-2.15-.06-2.31.4-.38,4.17.77,8.61,2.31h4.5v1.6c5.59,2,10.84,4.08,10.84,4.08l7.87,9V333.74ZM189.17,446h44.56v5.4H189.17Zm-27.95-54.38h72.51V397H161.22Zm0-18.14h72.51v5.41H161.22Zm0-18.12h72.51v5.4H161.22Z"/><path class="cls-4" d="M277.38,484.56s2.38,1.11,7.72-3.54c4.72-4.12,4.56-7.16,4.56-7.16l-22.38-25.67-22.36-25.67s0,3-4.67,7c-4.33,3.77-7.61,3.66-7.61,3.66L255,458.89Z"/><path class="cls-5" d="M238,427a14,14,0,0,1-8,3.55l-5.76-19.31,18.36,8.34S242.17,423.43,238,427Z"/><path class="cls-3" d="M404.48,110.6l-1.42,27.83L427.4,124.8a85.46,85.46,0,0,0,29.34,5c35.17,0,63.69-20.1,63.69-44.91S491.91,40,456.74,40s-63.69,20.11-63.69,44.92C393.05,94.48,397.28,103.32,404.48,110.6ZM487.8,67.12H426.13V61.41H487.8Zm-61.67,32.6H487.8v5.71H426.13ZM412.85,80.57h88.23v5.7H412.85Z"/><text class="cls-7" transform="translate(1239 338.2)">JOB Board</text></svg>