<svg id="Calque_1" data-name="Calque 1" xmlns="http://www.w3.org/2000/svg" viewBox="0 0 1920 619"><defs><style>.cls-1,.cls-6{fill:#fff;}.cls-2{fill:#7d7c7c;}.cls-3{fill:#ff8414;}.cls-4{fill:#f04647;}.cls-5{fill:#ec5721;}.cls-6{font-size:106.04px;font-family:FranklinGothic-Heavy, Franklin Gothic Heavy;font-weight:800;}.cls-7{letter-spacing:-0.01em;}.cls-8{letter-spacing:0em;}.cls-9{letter-spacing:0.02em;}.cls-10{font-size:90.9px;}</style></defs><title>Plan de travail 1</title><rect class="cls-1" x="-4.43" y="-2.32" width="1929.82" height="619.32"/><path class="cls-2" d="M1047.19-2.32h878.2V617H1210Zm-92.63,0h-52.1l201,619.31h42.44Z"/><path class="cls-3" d="M522.05,99.15h.38a4.1,4.1,0,0,1,3.42,2.92c1.07,3.06-.19,7-3.41,10.48a21,21,0,0,1-10,6.17c0-5.11.8-10,3-14C517.37,101.19,519.76,99.17,522.05,99.15Z"/><path class="cls-3" d="M499.61,121.16c.56,7.68.54,16-.89,22.42h12.66c-.44-4.59-1.3-16-1.61-21.3a22.71,22.71,0,0,1-5.76-.08A23.29,23.29,0,0,1,499.61,121.16Z"/><path class="cls-3" d="M487.4,106.71a24.64,24.64,0,0,0,8.92,9.66,128.94,128.94,0,0,0-2.44-15.15c-.48-1.9-1.42-3-2.68-3.28a3.27,3.27,0,0,0-.53,0,4.26,4.26,0,0,0-3.34,2C486.08,101.82,486.1,104.27,487.4,106.71Z"/><path class="cls-2" d="M479.5,149.75a3.06,3.06,0,0,0,3.06,3.07h46.62a3.07,3.07,0,0,0,0-6.13H482.56A3.07,3.07,0,0,0,479.5,149.75Z"/><path class="cls-2" d="M479.5,158.72a3.06,3.06,0,0,0,3.06,3h46.62a3.06,3.06,0,0,0,0-6.12H482.56A3.06,3.06,0,0,0,479.5,158.72Z"/><path class="cls-2" d="M479.5,168.13a3.07,3.07,0,0,0,3.06,3.07h46.62a3.07,3.07,0,0,0,0-6.13H482.56A3.06,3.06,0,0,0,479.5,168.13Z"/><path class="cls-2" d="M488.47,174a7.27,7.27,0,0,0,7.13,5.85h20.54a7.27,7.27,0,0,0,7.13-5.85Z"/><path class="cls-3" d="M463.26,90.61a42.49,42.49,0,0,0,16,33.28c5,9,2.33,19.69,2.33,19.69h14.2c1.61-6.6,1.53-15.57.85-23.66A27.27,27.27,0,0,1,485,108.18a9.6,9.6,0,0,1,.09-10A6.71,6.71,0,0,1,491.69,95c2.34.45,4.13,2.43,4.9,5.45a127.77,127.77,0,0,1,2.73,17.44,20.91,20.91,0,0,0,5.06,1.36,20.46,20.46,0,0,0,5.3,0c-.05-5.77.8-11.33,3.32-16s6.09-7.38,9.66-7.07a7,7,0,0,1,5.82,4.86c1.47,4.17,0,9.25-4,13.6a23.82,23.82,0,0,1-11.88,7.14c.28,5.41,1.24,17.55,1.68,21.79h15.86s-2.64-10.68,2.33-19.68a42.61,42.61,0,1,0-69.18-33.29Zm64.28-6.29a5.12,5.12,0,1,1,5.12,5.11A5.12,5.12,0,0,1,527.54,84.32Zm-16.25-15.9A10.78,10.78,0,1,1,522.07,79.2,10.78,10.78,0,0,1,511.29,68.42Z"/><path class="cls-4" d="M417.26,295c-27.37,0-49.57-35.39-49.57-67.56s22.2-48.84,49.57-48.84,49.57,16.7,49.57,48.84S444.65,295,417.26,295Z"/><path class="cls-4" d="M505.34,261.13c0,40.63,28,85.36,62.62,85.36s62.63-44.73,62.63-85.36-28-61.69-62.63-61.69S505.34,220.52,505.34,261.13Z"/><path class="cls-4" d="M446.34,431.59c9.39-32.12,23-52.88,47.17-55.67,32.93,0,42.68,8.57,42.45-31.06,0,0,10.18,9.81,30.61,9.81,23.21,0,32.58-10.89,32.58-10.89-3.21,37.49,11.74,32.69,40,32.69,26.76,3.35,41.59,21.17,51.49,55.12,6.53,22.35,9.58,46,12.4,68.82,0,0-22.51,19.19-132.29,19.19C477.89,519.6,434,500.41,434,500.41,436.77,477.56,439.84,453.94,446.34,431.59Z"/><path class="cls-2" d="M273.82,401.39,359.66,483h65.1c2.37-17.64,5.53-37.38,11-56.17a174.26,174.26,0,0,1,9.36-25.46Z"/><path class="cls-4" d="M315.42,387.31h132c9.65-14.29,23.48-25.77,44.14-28.16l1.92-.11c6,0,11.11.26,15.63.48l4.36.23c-7.83-25.1-19.45-38.42-39.88-41-22.38,0-34.21,3.8-31.66-25.87,0,0-7.44,8.61-25.8,8.61-16.17,0-24.23-7.76-24.23-7.76.19,31.37-7.53,24.6-33.59,24.6-19.1,2.18-29.91,18.63-37.32,44A225.16,225.16,0,0,0,315.42,387.31ZM413,329.52l-11.35-13.65h29.21l-11.69,13.65,11.69,45.12H401.63Z"/><polygon class="cls-5" points="120.21 457.5 117.63 442.43 104.08 449.53 128.62 405.96 139.91 411.53 120.21 457.5"/><polygon class="cls-5" points="150.77 457.5 153.35 442.43 166.9 449.53 142.36 405.96 131.07 411.53 150.77 457.5"/><path class="cls-4" d="M164.23,427.39h76.68V277.19H122.42V369.8l2.92,3.72.24-7,3.23-.68,3.09,6.33,1.71-6.84h3.3l1.7,6.84,3.1-6.33,3.22.68.25,7,4.34-5.54,3,1.34-1.22,6.93,5.4-4.52,2.67,1.94-1.64,4.07h3.65l1.57-.84.76.84h57.16v5.83H168.19l1.46,2.54-5.07,4.9,7-.5,1,3.14-5.9,3.69h54.15v5.85H169.77l-2.41.87,6.62,2.42-.34,3.27-7,1,6,3.73-1,3.14-7-.49,5.07,4.89L168,424.87l-6.78-1.94Zm56.65-120.16H142.45v-5.84h78.43Zm0,19.6H142.45V321h78.43Zm0,19.62H142.45V340.6h78.43Zm0,17.51H142.45v-5.84h78.43Z"/><polygon class="cls-2" points="161.22 385.2 162.32 383.57 166.87 383.57 161.22 385.2"/><polygon class="cls-5" points="135.25 368.61 132.63 379.12 127.89 369.39 127.51 380.21 120.84 371.68 122.72 382.35 114.42 375.38 118.48 385.42 108.92 380.35 114.97 389.31 104.56 386.33 112.35 393.86 101.55 393.1 110.73 398.84 100 400.35 110.18 404.06 100 407.76 110.73 409.27 101.55 415.01 112.35 414.26 104.56 421.78 114.97 418.8 108.92 427.78 118.48 422.69 114.42 432.73 122.72 425.78 120.84 436.44 127.51 427.91 127.89 438.73 132.63 429 135.25 439.51 137.88 429 142.63 438.73 143 427.91 149.67 436.44 147.79 425.78 156.09 432.73 152.04 422.69 161.6 427.78 155.54 418.8 165.95 421.78 158.17 414.26 168.96 415.01 159.78 409.27 170.51 407.76 160.33 404.06 170.51 400.35 159.78 398.84 168.96 393.1 158.17 393.86 165.95 386.33 155.54 389.31 161.6 380.35 152.04 385.42 156.09 375.38 147.79 382.35 149.67 371.68 143 380.21 142.63 369.39 137.88 379.12 135.25 368.61"/><path class="cls-4" d="M318.45,135.6c6-9.5,15.52-25.67,15.52-33.35a20.37,20.37,0,0,0-40.74,0c0,2.78,1.25,6.67,3.12,11A75.91,75.91,0,0,1,313,128.05,81,81,0,0,1,318.45,135.6Zm7-33.35A11.81,11.81,0,1,1,313.6,90.43,11.81,11.81,0,0,1,325.41,102.25Z"/><path class="cls-2" d="M185.06,169.46a68.75,68.75,0,0,0-.37,7.08A67.79,67.79,0,0,0,185.82,189a71.82,71.82,0,0,0,2.06,8.42A69.95,69.95,0,0,0,204.3,225a69.69,69.69,0,0,0,46.16,21.34H251a1.79,1.79,0,0,0,.46,0c1.09,0,2.19.08,3.24.08,1.3,0,2.69,0,4-.12h.21a.58.58,0,0,0,.29,0A69.78,69.78,0,0,0,305,225a66.93,66.93,0,0,0,6.9-8.41,70.74,70.74,0,0,0,9.48-19.15,71.79,71.79,0,0,0,2.05-8.42,67.79,67.79,0,0,0,1.14-12.49,66,66,0,0,0-.38-7.08,55.68,55.68,0,0,0-1.39-8.41,68.42,68.42,0,0,0-8.42-20.83,74.75,74.75,0,0,0-6-8.42,69.57,69.57,0,0,0-48.61-25,1.82,1.82,0,0,0-.34-.34,1.43,1.43,0,0,0,.09.29c-.21,0-.46,0-.67,0-1.39-.08-2.79-.13-4.21-.13s-2.73,0-4.08.13a.6.6,0,0,1,.08-.34,3.63,3.63,0,0,0-.34.34,69.2,69.2,0,0,0-16.61,3.09,119.11,119.11,0,0,1-5.17,11.07,60.18,60.18,0,0,1,13.12-4.44,111.74,111.74,0,0,0-10.41,15.4h-8.8c-1.71,2.91-3.44,5.75-5.1,8.42h9.71a90.26,90.26,0,0,0-6.35,20.83H195.08a60.65,60.65,0,0,1,4.64-12.14c-1.55-2.4-3.31-5.16-5.16-8.14a69.52,69.52,0,0,0-8.15,20.28A62.73,62.73,0,0,0,185.06,169.46ZM296.84,131.8h-18a111.61,111.61,0,0,0-10.22-15.19A60.54,60.54,0,0,1,296.84,131.8Zm17.38,29.25H289.34A90.72,90.72,0,0,0,283,140.22h21.28A61,61,0,0,1,314.22,161.05Zm.66,28H289.64a86.1,86.1,0,0,0,1-13.05c0-2.18-.1-4.35-.26-6.52h25.39a55.17,55.17,0,0,1,.42,7.08A57.86,57.86,0,0,1,314.88,189ZM301.29,216.6H280.71a93.57,93.57,0,0,0,7.22-19.15h24.6A61.34,61.34,0,0,1,301.29,216.6Zm-33.83,20.11a110.52,110.52,0,0,0,8.47-11.7h16.53A60,60,0,0,1,267.46,236.71ZM258.88,225h6.93a108.09,108.09,0,0,1-6.93,8.83Zm0-27.56h20.34a87,87,0,0,1-8.06,19.15H258.88Zm0-28h23.05c.19,2.17.3,4.34.3,6.52A78,78,0,0,1,281.12,189H258.88Zm0-29.24h14.83a83.6,83.6,0,0,1,7.06,20.83H258.88Zm0-22A106.51,106.51,0,0,1,269,131.8H258.88Zm-8.42,13.61H241A107.35,107.35,0,0,1,250.46,119Zm0,29.25H229.29a83.54,83.54,0,0,1,7-20.83h14.13Zm0,28H228.93A79.09,79.09,0,0,1,227.82,176c0-2.18.12-4.35.3-6.52h22.34Zm0,27.57H238.88a86.93,86.93,0,0,1-8-19.15h19.62ZM244.24,225h6.22v8Q247.11,229.07,244.24,225Zm-27.4,0h17.29a111.31,111.31,0,0,0,8.63,11.87A60.88,60.88,0,0,1,216.84,225Zm-20.07-27.56h25.34a93.61,93.61,0,0,0,7.23,19.15H208A61.12,61.12,0,0,1,196.77,197.45Zm-3.66-20.91a57,57,0,0,1,.41-7.08h26.15c-.17,2.17-.27,4.34-.27,6.52a86.1,86.1,0,0,0,1,13.05h-26A58.49,58.49,0,0,1,193.11,176.54Z"/><path class="cls-5" d="M181.12,99.38c0,13.68,24.77,49.53,24.77,49.53s24.76-35.85,24.76-49.53a24.77,24.77,0,0,0-49.53,0Zm10.4,0a14.37,14.37,0,1,1,14.37,14.37A14.36,14.36,0,0,1,191.52,99.38Z"/><path class="cls-2" d="M790.08,191.33c0-21-24.09-38-53.81-38s-53.8,17-53.8,38,24.09,37.95,53.8,37.95A72.18,72.18,0,0,0,761.06,225l20.56,11.51-1.2-23.5C786.5,206.87,790.08,199.4,790.08,191.33ZM710,171.46h52.1v4.82H710Zm52.1,37.19H710v-4.83h52.1Zm11.22-16.19H698.81v-4.82h74.54Z"/><path class="cls-4" d="M714.58,98.28c-40.55,0-73.42,23.18-73.42,51.78,0,11,4.88,21.2,13.17,29.59l-1.63,32.09,26.19-14.67a30.43,30.43,0,0,1-.55-5.74c0-15.28,11.27-28.68,28.1-36.05H668.86v-4.82h53.67a78,78,0,0,1,13.74-1.2c19.67,0,37.06,7.16,47.55,18.07A38.39,38.39,0,0,0,788,150.06C788,121.46,755.14,98.28,714.58,98.28Zm-31.77,19.47h64.72v4.83H682.81Zm78.67,21H668.86v-4.83h92.62Z"/><path class="cls-3" d="M283,461a53.21,53.21,0,1,0,53.21,53.21A53.27,53.27,0,0,0,283,461Zm0,97.87a44.66,44.66,0,1,1,44.66-44.66A44.66,44.66,0,0,1,283,558.89Z"/><path class="cls-5" d="M283,474.32a39.91,39.91,0,1,0,39.9,39.91A39.91,39.91,0,0,0,283,474.32Zm1.91,60.05v6.82h-4.14v-6.63a19.1,19.1,0,0,1-10.05-2.89l1.58-4.41a17.47,17.47,0,0,0,9.46,2.84c4.66,0,7.81-2.7,7.81-6.44s-2.56-5.85-7.42-7.83c-6.7-2.62-10.84-5.63-10.84-11.36,0-5.44,3.88-9.58,9.91-10.57v-6.63h4.08v6.37a17.73,17.73,0,0,1,8.54,2.29l-1.64,4.35A15.78,15.78,0,0,0,283.9,498c-5.06,0-7,3-7,5.65,0,3.41,2.43,5.12,8.15,7.48,6.76,2.76,10.17,6.19,10.17,12C295.26,528.39,291.65,533.24,284.89,534.37Z"/><path class="cls-2" d="M771.22,469.44V499.6S732.79,464,732.79,463.9h32.89A5.53,5.53,0,0,1,771.22,469.44Z"/><path class="cls-4" d="M732.79,330.77V458.36h31.65a12.35,12.35,0,0,1,12.32,12.33v29.12h87.66V485.39l-30.74-35.46h-78.5v-6.47H831.1c-1-4.15-2.45-10.18-3.52-15.23h-72.4v-6.48h71.19c-.21-1.55-.27-2.58-.06-2.77.48-.45,5,.93,10.31,2.77H842v1.92c6.69,2.43,13,4.88,13,4.88l9.43,10.76V330.77Zm55.86,134.39H842v6.47H788.65Zm-33.47-65.11H842v6.47H755.18Zm0-21.71H842v6.46H755.18Zm0-21.71H842v6.46H755.18Z"/><path class="cls-5" d="M894.27,511.38s2.87,1.32,9.26-4.24c5.64-4.95,5.45-8.58,5.45-8.58l-26.8-30.74L855.4,437.08s0,3.61-5.58,8.45c-5.19,4.5-9.12,4.38-9.12,4.38l26.79,30.72Z"/><path class="cls-3" d="M847.18,442.49a16.9,16.9,0,0,1-9.56,4.26l-6.9-23.14,22,10S852.11,438.18,847.18,442.49Z"/><text class="cls-6" transform="translate(1401.3 246.47)">POUR <tspan class="cls-7" x="-119.22" y="161.59">P</tspan><tspan class="cls-8" x="-52.06" y="161.59">a</tspan><tspan class="cls-9" x="10.13" y="161.59">r</tspan><tspan x="52.69" y="161.59">ticulier</tspan><tspan class="cls-10" x="406.55" y="161.59"> </tspan></text></svg>